<svg xmlns="http://www.w3.org/2000/svg" viewBox="0 0 24 24">
  <path fill="#f8fafc" d="M12 .5C5.65.5.5 5.65.5 12c0 5.09 3.29 9.4 7.86 10.93.58.1.79-.25.79-.56v-2.17c-3.2.7-3.88-1.36-3.88-1.36-.53-1.34-1.29-1.7-1.29-1.7-1.05-.72.08-.7.08-.7 1.16.08 1.78 1.2 1.78 1.2 1.04 1.77 2.72 1.26 3.38.96.11-.75.41-1.26.74-1.55-2.56-.29-5.25-1.28-5.25-5.69 0-1.26.45-2.29 1.19-3.09-.12-.29-.52-1.47.11-3.05 0 0 .98-.31 3.18 1.18A11.1 11.1 0 0 1 12 6.01c.98 0 1.96.13 2.88.39 2.2-1.49 3.17-1.18 3.17-1.18.64 1.58.24 2.76.12 3.05.74.8 1.18 1.83 1.18 3.09 0 4.43-2.7 5.4-5.27 5.69.42.36.79 1.07.79 2.16v3.16c0 .31.21.67.8.56A11.51 11.51 0 0 0 23.5 12C23.5 5.65 18.35.5 12 .5Z"/>
</svg>
