<svg xmlns="http://www.w3.org/2000/svg" viewBox="0 0 64 64">
  <defs>
    <linearGradient id="bg" x1="8" y1="6" x2="56" y2="58" gradientUnits="userSpaceOnUse">
      <stop stop-color="#007AFF"/>
      <stop offset=".52" stop-color="#5856D6"/>
      <stop offset="1" stop-color="#AF52DE"/>
    </linearGradient>
  </defs>
  <rect width="64" height="64" rx="18" fill="url(#bg)"/>
  <path d="M17 22.5c0-5 3.8-8.5 9.5-8.5 4.2 0 7.2 1.6 9.1 4.6l-5.2 3.1c-.9-1.4-2.2-2.1-3.9-2.1-2 0-3.3 1-3.3 2.5 0 1.7 1.4 2.3 5.2 3.4 5.6 1.7 8.3 4.5 8.3 9 0 5.5-4.3 9.2-10.5 9.2-5.2 0-8.9-2.1-10.8-6.1l5.5-2.8c1 2 2.8 3.2 5.2 3.2 2.5 0 4-1.1 4-2.9 0-1.7-1.3-2.5-5.1-3.6-5.4-1.6-8-4.3-8-9Z" fill="white"/>
  <path d="M40.5 14h7v19.7c0 6.7-3.8 10.3-10.3 10.3-1.4 0-2.7-.2-3.8-.5v-6c.8.2 1.7.3 2.6.3 3.1 0 4.5-1.4 4.5-4.6V14Z" fill="white"/>
</svg>
